<svg width="81" height="80" viewBox="0 0 81 80" fill="none" xmlns="http://www.w3.org/2000/svg">
<circle cx="40.5" cy="40" r="40" fill="#FEE500"/>
<path d="M40.5 24C31.1111 24 23.5 30.1206 23.5 37.6707C23.5 42.552 26.6819 46.8351 31.4684 49.2536C31.208 50.1696 29.7951 55.146 29.7388 55.537C29.7388 55.537 29.705 55.8307 29.8915 55.9428C30.078 56.0548 30.2974 55.9678 30.2974 55.9678C30.8322 55.8916 36.4996 51.8314 37.4805 51.1264C38.4605 51.2679 39.4695 51.3414 40.5 51.3414C49.8889 51.3414 57.5 45.2209 57.5 37.6707C57.5 30.1206 49.8889 24 40.5 24Z" fill="black" fill-opacity="0.9"/>
</svg>
