<svg width="40" height="32" viewBox="0 0 40 32" fill="none" xmlns="http://www.w3.org/2000/svg">
<path fill-rule="evenodd" clip-rule="evenodd" d="M14.0607 7.93934C13.4749 7.35355 12.5251 7.35355 11.9393 7.93934C11.3536 8.52513 11.3536 9.47487 11.9393 10.0607L17.8787 16L11.9393 21.9393C11.3536 22.5251 11.3536 23.4749 11.9393 24.0607C12.5251 24.6464 13.4749 24.6464 14.0607 24.0607L20 18.1213L25.9393 24.0607C26.5251 24.6464 27.4749 24.6464 28.0607 24.0607C28.6464 23.4749 28.6464 22.5251 28.0607 21.9393L22.1213 16L28.0607 10.0607C28.6464 9.47487 28.6464 8.52513 28.0607 7.93934C27.4749 7.35355 26.5251 7.35355 25.9393 7.93934L20 13.8787L14.0607 7.93934Z" fill="#050708"/>
</svg>
