<svg width="41" height="40" viewBox="0 0 41 40" fill="none" xmlns="http://www.w3.org/2000/svg">
<path fill-rule="evenodd" clip-rule="evenodd" d="M14.5607 11.9393C13.9749 11.3536 13.0251 11.3536 12.4393 11.9393C11.8536 12.5251 11.8536 13.4749 12.4393 14.0607L18.3787 20L12.4393 25.9393C11.8536 26.5251 11.8536 27.4749 12.4393 28.0607C13.0251 28.6464 13.9749 28.6464 14.5607 28.0607L20.5 22.1213L26.4393 28.0607C27.0251 28.6464 27.9749 28.6464 28.5607 28.0607C29.1464 27.4749 29.1464 26.5251 28.5607 25.9393L22.6213 20L28.5607 14.0607C29.1464 13.4749 29.1464 12.5251 28.5607 11.9393C27.9749 11.3536 27.0251 11.3536 26.4393 11.9393L20.5 17.8787L14.5607 11.9393Z" fill="white"/>
</svg>
