<svg width="13" height="14" viewBox="0 0 13 14" fill="none" xmlns="http://www.w3.org/2000/svg">
<path fill-rule="evenodd" clip-rule="evenodd" d="M8.13227 0.670913C7.55021 0.379883 6.84478 0.52234 6.42127 1.01643L3.30886 4.64758C2.92048 5.10069 2.707 5.67778 2.707 6.27456V10.9789C2.707 12.3596 3.82629 13.4789 5.207 13.4789H8.982C10.1902 13.4789 11.2255 12.6148 11.4417 11.4261L12.0679 7.98192C12.3469 6.44732 11.168 5.03471 9.60822 5.03471H7.96116L8.84345 2.38785C9.06663 1.7183 8.76352 0.986539 8.13227 0.670913ZM7.18053 1.66723C7.30541 1.52153 7.51342 1.47952 7.68506 1.56534C7.8712 1.65841 7.96058 1.87419 7.89477 2.07162L6.79311 5.3766L6.57374 6.03471H7.26745H9.60822C10.5441 6.03471 11.2514 6.88228 11.084 7.80304L10.4578 11.2472C10.3281 11.9604 9.70693 12.4789 8.982 12.4789H5.207C4.37857 12.4789 3.707 11.8073 3.707 10.9789V6.27456C3.707 5.91649 3.83509 5.57024 4.06811 5.29837L7.18053 1.66723ZM1 6.21145C1 5.93531 0.776142 5.71145 0.5 5.71145C0.223858 5.71145 0 5.93531 0 6.21145V12.3021C0 12.5783 0.223858 12.8021 0.5 12.8021C0.776142 12.8021 1 12.5783 1 12.3021V6.21145Z" fill="#A1A1A1"/>
</svg>
