<svg width="334" height="58" viewBox="0 0 334 58" fill="none" xmlns="http://www.w3.org/2000/svg">
<path d="M1.96662e-05 21.0811C-0.00430392 20.1296 0.704765 19.3421 1.64298 19.3421C1.64298 19.3421 10.3204 19.3355 14.6008 19.3355C17.8673 19.3355 20.4009 21.0242 21.4839 23.6972H21.5877C22.5259 22.3498 23.6393 21.3129 24.8542 20.5955C26.214 19.7686 27.751 19.3355 29.6231 19.3355C34.4244 19.3355 38.0865 22.7719 38.0865 30.3731V43.6702C38.0865 44.5955 37.345 45.3458 36.4306 45.3458H32.1373C31.2228 45.3458 30.4813 44.5955 30.4813 43.6702V31.5302C30.4813 27.8467 29.3096 25.7052 26.7825 25.7052C24.9688 25.7052 23.7149 26.952 23.1874 28.4635C22.9972 29.0344 22.9064 29.835 22.9064 30.4715V43.6702C22.9064 44.5955 22.1649 45.3458 21.2505 45.3458H16.9571C16.0427 45.3458 15.3012 44.5955 15.3012 43.6702V31.0862C15.3012 27.8817 14.1728 25.7052 11.6802 25.7052C9.67405 25.7052 8.48507 27.2626 8.01596 28.5444C7.78681 29.1635 7.72411 29.8853 7.72411 30.5481V43.6702C7.72411 44.5955 6.98262 45.3458 6.06818 45.3458H1.6646C0.750163 45.3458 1.96662e-05 44.5955 1.96662e-05 43.6702C1.96662e-05 43.6702 0.00866685 22.9622 1.96662e-05 21.0811Z" fill="black"/>
<path d="M65.8288 37.1912C65.8288 39.6542 65.8829 42.3578 65.9542 44.1646C65.9931 45.1139 65.2387 45.9057 64.3004 45.9057H50.8973C45.789 45.9057 42.0664 42.6837 42.0664 34.8638V21.582C42.0664 20.6567 42.8079 19.9064 43.7223 19.9064H48.2383C49.1527 19.9064 49.8942 20.6567 49.8942 21.582V33.5776C49.8942 37.3006 51.0746 39.5273 53.8309 39.5273C55.9559 39.5273 57.2141 38.0355 57.7156 36.745C57.9123 36.2834 58.001 35.7016 58.001 35.0672V21.582C58.001 20.6567 58.7425 19.9064 59.6569 19.9064H64.1729C65.0873 19.9064 65.8288 20.6567 65.8288 21.582V37.1912Z" fill="black"/>
<path d="M70.1805 40.4263C70.4226 39.4573 71.4473 38.9105 72.3704 39.2714C73.8772 39.862 75.8012 40.3454 77.3771 40.3454C79.7357 40.3454 80.7452 39.5404 80.7452 38.2433C80.7452 36.9462 79.9454 36.2878 77.0572 35.3013C71.83 33.5623 69.8627 30.6837 69.893 27.6979C69.893 22.9207 73.8772 19.3333 80.114 19.3333C82.2714 19.3333 84.2473 19.7096 85.7541 20.2192C86.5799 20.4992 87.0555 21.3676 86.8436 22.2229L86.3075 24.3665C86.0719 25.3137 85.0839 25.8671 84.1738 25.5433C83.0691 25.1518 81.7159 24.8259 80.3864 24.8259C78.4775 24.8259 77.3858 25.5958 77.3858 26.8755C77.3858 28.1551 78.3824 28.7369 81.4629 29.8109C86.234 31.4493 88.2315 33.932 88.2618 37.6418C88.2618 42.3884 84.6019 45.8861 77.3988 45.8861C74.8197 45.8861 72.4461 45.4223 70.6172 44.7158C69.8303 44.4118 69.3915 43.5631 69.599 42.7362L70.1784 40.422L70.1805 40.4263Z" fill="black"/>
<path d="M107.294 45.3458C106.497 45.3458 105.811 44.7683 105.666 43.9743L105.455 42.8171H105.288C103.647 44.8427 101.083 45.9167 98.1088 45.9167C92.9896 45.9167 89.9826 42.1981 89.9826 38.134C89.9826 31.5084 95.841 28.3651 104.737 28.3782V28.0545C104.737 26.7027 104.019 24.7712 100.134 24.7778C98.3076 24.7778 96.4139 25.2262 94.8704 25.8518C93.9581 26.2214 92.9334 25.7183 92.661 24.7624L92.1487 22.96C91.9174 22.1441 92.3259 21.2867 93.0977 20.952C95.0195 20.123 97.9164 19.3355 101.537 19.3355C109.908 19.3355 112.554 24.3403 112.554 30.314V39.1839C112.554 40.7435 112.606 42.2528 112.716 43.5127C112.802 44.4949 112.046 45.3436 111.071 45.3436H107.294V45.3458ZM104.97 35.0497C104.97 34.0829 104.162 33.302 103.208 33.3786C99.9852 33.6367 97.6786 34.7479 97.6786 37.3268C97.6786 39.3764 99.0037 40.3716 100.781 40.3716C102.692 40.3716 104.311 39.0789 104.823 37.4493C104.942 37.0403 104.968 36.5481 104.968 36.0975V35.0497H104.97Z" fill="black"/>
<path d="M117.228 21.0833C117.187 20.1296 117.939 19.3377 118.881 19.3377C118.881 19.3377 128.679 19.3355 131.115 19.3355C131.122 19.3355 131.13 19.3355 131.137 19.3355C132.049 19.3355 132.784 20.088 132.784 21.0111V24.2637C132.784 25.2152 132.004 25.9677 131.063 25.9371C130.938 25.9327 130.808 25.9305 130.67 25.9305C127.799 25.9305 125.838 27.4704 125.313 29.9466C125.216 30.4497 125.168 31.8343 125.168 32.4752V43.6702C125.168 44.5955 124.426 45.3458 123.512 45.3458H118.996C118.082 45.3458 117.34 44.5955 117.34 43.6702C117.34 43.6702 117.303 22.866 117.228 21.0833Z" fill="black"/>
<path d="M159.86 32.3724C159.86 41.6666 153.353 45.9167 146.613 45.9167C139.3 45.9167 133.631 41.0235 133.631 32.8098C133.631 24.5962 138.982 19.3355 147.063 19.3355C155.143 19.3355 159.86 24.6903 159.86 32.3724ZM141.686 32.6327C141.686 36.9746 143.5 40.2688 146.829 40.2688C149.877 40.2688 151.806 37.1824 151.806 32.5933C151.806 28.8419 150.377 24.9877 146.836 24.9877C143.109 24.9877 141.686 28.8638 141.686 32.6349V32.6327Z" fill="black"/>
<path d="M162.788 40.4263C163.03 39.4573 164.054 38.9105 164.977 39.2714C166.484 39.862 168.408 40.3454 169.984 40.3454C172.343 40.3454 173.352 39.5404 173.352 38.2433C173.352 36.9462 172.552 36.2878 169.664 35.3013C164.437 33.5623 162.47 30.6837 162.5 27.6979C162.5 22.9207 166.484 19.3333 172.721 19.3333C174.878 19.3333 176.854 19.7096 178.361 20.2192C179.187 20.4992 179.662 21.3676 179.451 22.2229L178.914 24.3665C178.679 25.3137 177.691 25.8671 176.781 25.5433C175.676 25.1518 174.323 24.8259 172.993 24.8259C171.084 24.8259 169.993 25.5958 169.993 26.8755C169.993 28.1551 170.989 28.7369 174.07 29.8109C178.841 31.4493 180.838 33.932 180.869 37.6418C180.869 42.3884 177.209 45.8861 170.006 45.8861C167.427 45.8861 165.053 45.4223 163.224 44.7158C162.437 44.4118 161.998 43.5631 162.206 42.7362L162.785 40.422L162.788 40.4263Z" fill="black"/>
<path d="M183.692 40.4263C183.934 39.4573 184.959 38.9105 185.882 39.2714C187.389 39.862 189.313 40.3454 190.889 40.3454C193.247 40.3454 194.257 39.5404 194.257 38.2433C194.257 36.9462 193.457 36.2878 190.569 35.3013C185.342 33.5623 183.374 30.6837 183.405 27.6979C183.405 22.9207 187.389 19.3333 193.626 19.3333C195.783 19.3333 197.759 19.7096 199.266 20.2192C200.091 20.4992 200.567 21.3676 200.355 22.2229L199.819 24.3665C199.583 25.3137 198.595 25.8671 197.685 25.5433C196.581 25.1518 195.227 24.8259 193.898 24.8259C191.989 24.8259 190.897 25.5958 190.897 26.8755C190.897 28.1551 191.894 28.7369 194.974 29.8109C199.746 31.4493 201.743 33.932 201.773 37.6418C201.773 42.3884 198.113 45.8861 190.91 45.8861C188.331 45.8861 185.958 45.4223 184.129 44.7158C183.342 44.4118 182.903 43.5631 183.111 42.7362L183.69 40.422L183.692 40.4263Z" fill="black"/>
<path d="M263.934 33.2473C263.432 33.2473 263.032 32.8098 263.082 32.2936C263.127 31.843 263.534 31.5171 263.981 31.5171H286.98C287.664 31.5171 287.819 30.5481 287.171 30.3315C279.637 27.8248 258.923 22.0457 251.101 20.0027C251.023 19.983 250.941 19.9786 250.861 19.9917C246.326 21.7154 233.768 23.0038 228.802 23.7912C228.407 23.8547 228.011 23.9137 227.613 23.9706C224.591 24.3993 221.504 24.6378 218.365 24.6837C218.365 24.6837 218.361 24.6881 218.356 24.6903C218.279 24.7406 218.203 24.7953 218.129 24.8478C218.078 24.8849 218.024 24.9243 217.972 24.9615C217.909 25.0074 217.846 25.0556 217.784 25.1037C217.76 25.1212 217.738 25.1409 217.714 25.1584C215.518 26.8995 214.124 29.4806 214.113 32.368C214.113 32.368 214.113 32.3767 214.113 32.3833C214.113 32.3899 214.113 32.3921 214.113 32.3986C214.122 35.2838 215.518 37.8671 217.714 39.6083C217.738 39.6257 217.76 39.6454 217.784 39.6629C217.846 39.7111 217.909 39.7592 217.972 39.8051C218.024 39.8445 218.075 39.8817 218.129 39.9189C218.205 39.9714 218.281 40.026 218.356 40.0764C218.356 40.0764 218.361 40.0807 218.365 40.0829C221.504 40.131 224.591 40.3695 227.613 40.796C228.011 40.8529 228.407 40.9119 228.802 40.9754C233.766 41.7628 246.326 43.049 250.861 44.7749C250.941 44.7858 251.021 44.7836 251.101 44.7639C258.923 42.7209 279.637 36.944 287.171 34.4351C287.819 34.2185 287.664 33.2495 286.98 33.2495H263.931L263.934 33.2473Z" fill="black"/>
<path d="M206.998 45.8707C208.65 45.8707 209.988 44.5163 209.988 42.8456C209.988 41.1748 208.65 39.8204 206.998 39.8204C205.347 39.8204 204.009 41.1748 204.009 42.8456C204.009 44.5163 205.347 45.8707 206.998 45.8707Z" fill="black"/>
<path d="M322.905 5.5881C324.132 5.5881 325.032 5.88796 325.713 6.48766C326.177 5.94248 326.885 5.69714 327.567 5.69714C328.058 5.69714 328.521 5.83344 328.848 6.05151L326.94 15.0744C326.613 16.6009 327.049 17.0916 327.758 17.0916C328.766 17.0916 329.938 16.4101 330.62 15.7286C330.92 15.8649 331.083 16.1102 331.083 16.3828C331.083 16.5736 331.002 16.7917 330.838 16.9825C329.557 18.4273 327.594 19.6812 326.122 19.6812C324.841 19.6812 323.56 19.0815 323.587 16.928C322.442 18.5363 320.997 19.6812 319.444 19.6812C316.609 19.6812 316.036 16.8462 316.036 15.1016C316.036 10.3312 319.116 5.5881 322.905 5.5881ZM323.642 15.1562L325.168 7.85063C324.705 7.68708 324.296 7.63256 323.887 7.63256C320.588 7.63256 319.416 11.9395 319.416 14.9108C319.416 16.2738 320.043 16.8735 320.888 16.8735C321.761 16.8735 322.905 16.1647 323.642 15.1562Z" fill="black"/>
<path d="M316.159 7.41461H314.96L313.352 15.0745C313.025 16.601 313.461 17.0917 314.169 17.0917C315.178 17.0917 316.35 16.4102 317.032 15.7287C317.332 15.865 317.495 16.1104 317.495 16.3829C317.495 16.5738 317.413 16.7918 317.25 16.9827C315.969 18.4274 313.897 19.6813 312.07 19.6813C310.408 19.6813 309.317 18.6455 309.944 15.6469L311.689 7.41461H310.326C310.19 6.54231 310.626 5.83356 311.471 5.83356H312.016L312.507 3.59829C312.779 2.34436 313.815 1.88095 314.796 1.88095C315.287 1.88095 315.751 2.01725 316.078 2.23532L315.314 5.83356H317.304C317.441 6.70586 317.004 7.41461 316.159 7.41461Z" fill="black"/>
<path d="M309.221 8.205C309.221 10.5221 307.994 12.3757 302.733 15.2924C303.006 16.7645 304.014 17.3096 305.268 17.3096C307.231 17.3096 309.739 15.9194 310.911 14.3656C311.62 14.2293 311.892 14.8018 311.592 15.2924C309.712 18.0456 306.55 19.6812 303.905 19.6812C302.106 19.6812 300.525 18.9452 299.762 17.3096C299.653 17.3642 299.544 17.4187 299.435 17.4459C298.372 17.7185 297.39 16.928 297.581 15.8649C298.208 15.9467 298.753 15.8104 299.326 15.565C299.299 15.3197 299.271 15.0744 299.271 14.8018C299.271 11.2581 301.616 5.5881 306.113 5.5881C308.594 5.5881 309.221 6.97833 309.221 8.205ZM306.304 7.71434C303.605 7.71434 302.733 12.2121 302.651 14.1203C305.296 12.4575 307.095 10.5493 307.095 8.77745C307.095 8.15049 306.768 7.71434 306.304 7.71434Z" fill="black"/>
<path d="M287.943 12.294L289.906 3.16209C290.069 2.42609 289.551 2.26253 289.115 2.78046C288.733 2.42609 288.706 2.15349 288.706 1.93542C288.706 1.30845 290.669 0 292.141 0C293.122 0 293.667 0.46341 293.449 1.49927L292.168 7.82345C293.558 6.18788 294.812 5.69721 295.903 5.69721C298.002 5.69721 299.31 7.33278 299.31 9.94968C299.31 14.5838 294.812 19.6813 290.751 19.6813C287.779 19.6813 287.043 16.4919 287.943 12.294ZM295.875 10.5494C295.875 9.05012 295.248 8.45041 294.403 8.45041C293.531 8.45041 292.468 9.10464 291.705 10.086C290.969 13.3026 290.86 14.3112 290.86 14.9381C290.86 16.4919 291.487 16.8736 292.195 16.8736C294.131 16.8736 295.875 13.7387 295.875 10.5494Z" fill="black"/>
</svg>
