<svg width="138" height="24" viewBox="0 0 138 24" fill="none" xmlns="http://www.w3.org/2000/svg">
<path d="M8.13773e-06 8.7232C-0.00178093 8.32947 0.291627 8.00362 0.679855 8.00362C0.679855 8.00362 4.27052 8.00091 6.0417 8.00091C7.39335 8.00091 8.44174 8.69966 8.88991 9.80573H8.93284C9.32107 9.24817 9.78176 8.81914 10.2845 8.52226C10.8472 8.18012 11.4832 8.00091 12.2578 8.00091C14.2446 8.00091 15.7599 9.42286 15.7599 12.5682V18.0704C15.7599 18.4533 15.4531 18.7638 15.0747 18.7638H13.2982C12.9198 18.7638 12.613 18.4533 12.613 18.0704V13.047C12.613 11.5228 12.1281 10.6366 11.0824 10.6366C10.3319 10.6366 9.81307 11.1526 9.5948 11.778C9.51608 12.0142 9.47851 12.3455 9.47851 12.6089V18.0704C9.47851 18.4533 9.17169 18.7638 8.7933 18.7638H7.01675C6.63836 18.7638 6.33153 18.4533 6.33153 18.0704V12.8632C6.33153 11.5372 5.86459 10.6366 4.83319 10.6366C4.00306 10.6366 3.51106 11.2811 3.31695 11.8115C3.22213 12.0676 3.19619 12.3663 3.19619 12.6406V18.0704C3.19619 18.4533 2.88936 18.7638 2.51097 18.7638H0.688801C0.310412 18.7638 8.13773e-06 18.4533 8.13773e-06 18.0704C8.13773e-06 18.0704 0.00358628 9.5016 8.13773e-06 8.7232Z" fill="black"/>
<path d="M27.2395 15.3895C27.2395 16.4086 27.2619 17.5274 27.2914 18.275C27.3075 18.6678 26.9953 18.9955 26.6071 18.9955H21.061C18.9472 18.9955 17.4068 17.6622 17.4068 14.4264V8.93047C17.4068 8.5476 17.7136 8.23714 18.092 8.23714H19.9607C20.3391 8.23714 20.6459 8.5476 20.6459 8.93047V13.8942C20.6459 15.4347 21.1343 16.3561 22.2748 16.3561C23.1542 16.3561 23.6748 15.7388 23.8823 15.2048C23.9637 15.0138 24.0004 14.7731 24.0004 14.5106V8.93047C24.0004 8.5476 24.3072 8.23714 24.6856 8.23714H26.5543C26.9327 8.23714 27.2395 8.5476 27.2395 8.93047V15.3895Z" fill="black"/>
<path d="M29.0402 16.7281C29.1404 16.3272 29.5644 16.1009 29.9464 16.2502C30.5699 16.4946 31.366 16.6946 32.0181 16.6946C32.9941 16.6946 33.4118 16.3616 33.4118 15.8248C33.4118 15.2881 33.0808 15.0156 31.8857 14.6074C29.7227 13.8878 28.9087 12.6967 28.9212 11.4612C28.9212 9.48441 30.5699 8 33.1506 8C34.0434 8 34.861 8.15568 35.4845 8.36658C35.8262 8.48243 36.023 8.84177 35.9353 9.19567L35.7135 10.0827C35.6159 10.4746 35.2071 10.7036 34.8305 10.5697C34.3734 10.4076 33.8135 10.2728 33.2633 10.2728C32.4734 10.2728 32.0217 10.5914 32.0217 11.1209C32.0217 11.6504 32.4341 11.8911 33.7088 12.3356C35.683 13.0135 36.5096 14.0408 36.5221 15.5759C36.5221 17.54 35.0077 18.9873 32.0271 18.9873C30.9599 18.9873 29.9777 18.7954 29.2209 18.5031C28.8953 18.3773 28.7137 18.0261 28.7996 17.6839L29.0393 16.7263L29.0402 16.7281Z" fill="black"/>
<path d="M44.3976 18.7638C44.0675 18.7638 43.784 18.5248 43.724 18.1962L43.6364 17.7174H43.5675C42.8885 18.5556 41.8276 19 40.5967 19C38.4785 19 37.2342 17.4613 37.2342 15.7796C37.2342 13.0379 39.6584 11.7373 43.3394 11.7427V11.6087C43.3394 11.0494 43.0424 10.2501 41.4349 10.2529C40.679 10.2529 39.8954 10.4384 39.2567 10.6973C38.8792 10.8502 38.4552 10.6421 38.3425 10.2465L38.1305 9.5007C38.0348 9.16309 38.2038 8.80828 38.5232 8.66979C39.3184 8.32675 40.5171 8.00091 42.0155 8.00091C45.4791 8.00091 46.574 10.0718 46.574 12.5437V16.214C46.574 16.8594 46.5955 17.4839 46.6411 18.0053C46.6769 18.4117 46.3638 18.7629 45.9604 18.7629H44.3976V18.7638ZM43.436 14.5033C43.436 14.1033 43.1014 13.7801 42.7069 13.8118C41.3732 13.9186 40.4187 14.3784 40.4187 15.4456C40.4187 16.2937 40.9671 16.7055 41.7024 16.7055C42.4931 16.7055 43.1631 16.1706 43.3752 15.4963C43.4244 15.327 43.4351 15.1233 43.4351 14.9369V14.5033H43.436Z" fill="black"/>
<path d="M48.508 8.7241C48.491 8.32947 48.8023 8.00181 49.1923 8.00181C49.1923 8.00181 53.2464 8.00091 54.2545 8.00091C54.2572 8.00091 54.2608 8.00091 54.2634 8.00091C54.6409 8.00091 54.9451 8.31227 54.9451 8.69423V10.0402C54.9451 10.4339 54.6222 10.7452 54.233 10.7326C54.1812 10.7308 54.1275 10.7299 54.0702 10.7299C52.8823 10.7299 52.0709 11.3671 51.8536 12.3917C51.8133 12.5999 51.7936 13.1728 51.7936 13.438V18.0704C51.7936 18.4533 51.4868 18.7638 51.1084 18.7638H49.2397C48.8613 18.7638 48.5545 18.4533 48.5545 18.0704C48.5545 18.0704 48.5393 9.46178 48.508 8.7241Z" fill="black"/>
<path d="M66.1491 13.3955C66.1491 17.2413 63.4566 19 60.6674 19C57.6412 19 55.2957 16.9752 55.2957 13.5765C55.2957 10.1777 57.5097 8.00091 60.8535 8.00091C64.1973 8.00091 66.1491 10.2167 66.1491 13.3955ZM58.6288 13.5032C58.6288 15.2998 59.3793 16.663 60.7569 16.663C62.0182 16.663 62.8161 15.3858 62.8161 13.4869C62.8161 11.9346 62.2248 10.3398 60.7596 10.3398C59.2174 10.3398 58.6288 11.9436 58.6288 13.5041V13.5032Z" fill="black"/>
<path d="M67.3603 16.7281C67.4605 16.3272 67.8845 16.1009 68.2665 16.2502C68.89 16.4946 69.6861 16.6946 70.3383 16.6946C71.3142 16.6946 71.7319 16.3616 71.7319 15.8248C71.7319 15.2881 71.401 15.0156 70.2059 14.6074C68.0429 13.8878 67.2288 12.6967 67.2414 11.4612C67.2414 9.48441 68.89 8 71.4707 8C72.3635 8 73.1811 8.15568 73.8046 8.36658C74.1463 8.48243 74.3431 8.84177 74.2554 9.19567L74.0336 10.0827C73.9361 10.4746 73.5273 10.7036 73.1507 10.5697C72.6936 10.4076 72.1336 10.2728 71.5834 10.2728C70.7936 10.2728 70.3418 10.5914 70.3418 11.1209C70.3418 11.6504 70.7542 11.8911 72.0289 12.3356C74.0032 13.0135 74.8297 14.0408 74.8422 15.5759C74.8422 17.54 73.3278 18.9873 70.3472 18.9873C69.28 18.9873 68.2978 18.7954 67.541 18.5031C67.2154 18.3773 67.0338 18.0261 67.1197 17.6839L67.3594 16.7263L67.3603 16.7281Z" fill="black"/>
<path d="M76.0105 16.7281C76.1107 16.3272 76.5347 16.1009 76.9167 16.2502C77.5402 16.4946 78.3363 16.6946 78.9884 16.6946C79.9644 16.6946 80.3821 16.3616 80.3821 15.8248C80.3821 15.2881 80.0511 15.0156 78.856 14.6074C76.693 13.8878 75.879 12.6967 75.8915 11.4612C75.8915 9.48441 77.5402 8 80.1209 8C81.0136 8 81.8313 8.15568 82.4547 8.36658C82.7965 8.48243 82.9933 8.84177 82.9056 9.19567L82.6837 10.0827C82.5862 10.4746 82.1774 10.7036 81.8008 10.5697C81.3437 10.4076 80.7838 10.2728 80.2336 10.2728C79.4437 10.2728 78.992 10.5914 78.992 11.1209C78.992 11.6504 79.4044 11.8911 80.6791 12.3356C82.6533 13.0135 83.4799 14.0408 83.4924 15.5759C83.4924 17.54 81.978 18.9873 78.9974 18.9873C77.9302 18.9873 76.948 18.7954 76.1912 18.5031C75.8656 18.3773 75.684 18.0261 75.7699 17.6839L76.0096 16.7263L76.0105 16.7281Z" fill="black"/>
<path d="M109.214 13.7575C109.006 13.7575 108.841 13.5765 108.861 13.3629C108.88 13.1764 109.048 13.0416 109.234 13.0416H118.751C119.033 13.0416 119.098 12.6406 118.829 12.551C115.712 11.5137 107.14 9.12236 103.904 8.27697C103.872 8.26882 103.838 8.26701 103.805 8.27244C101.928 8.98568 96.7315 9.5188 94.6768 9.84465C94.5131 9.8709 94.3494 9.89533 94.1848 9.91887C92.9342 10.0963 91.6568 10.1949 90.358 10.2139C90.358 10.2139 90.3562 10.2157 90.3544 10.2167C90.3222 10.2375 90.2909 10.2601 90.2605 10.2818C90.239 10.2972 90.2166 10.3135 90.1952 10.3289C90.1692 10.3479 90.1433 10.3678 90.1173 10.3877C90.1075 10.395 90.0986 10.4031 90.0887 10.4104C89.1799 11.1308 88.6029 12.1989 88.5984 13.3936C88.5984 13.3936 88.5984 13.3973 88.5984 13.4C88.5984 13.4027 88.5984 13.4036 88.5984 13.4063C88.602 14.6002 89.1799 15.6691 90.0887 16.3896C90.0986 16.3969 90.1075 16.405 90.1173 16.4122C90.1433 16.4322 90.1692 16.4521 90.1952 16.4711C90.2166 16.4874 90.2381 16.5028 90.2605 16.5181C90.2918 16.5399 90.3231 16.5625 90.3544 16.5833C90.3544 16.5833 90.3562 16.5851 90.358 16.586C91.6568 16.6059 92.9342 16.7046 94.1848 16.8811C94.3494 16.9046 94.5131 16.9291 94.6768 16.9553C96.7306 17.2812 101.928 17.8134 103.805 18.5275C103.838 18.5321 103.871 18.5311 103.904 18.523C107.14 17.6776 115.712 15.2872 118.829 14.249C119.098 14.1594 119.033 13.7584 118.751 13.7584H109.213L109.214 13.7575Z" fill="black"/>
<path d="M85.6545 18.981C86.3378 18.981 86.8916 18.4205 86.8916 17.7292C86.8916 17.0379 86.3378 16.4774 85.6545 16.4774C84.9712 16.4774 84.4174 17.0379 84.4174 17.7292C84.4174 18.4205 84.9712 18.981 85.6545 18.981Z" fill="black"/>
<path d="M133.616 2.31232C134.124 2.31232 134.496 2.43639 134.778 2.68455C134.97 2.45895 135.263 2.35744 135.545 2.35744C135.748 2.35744 135.94 2.41383 136.075 2.50407L135.285 6.23767C135.15 6.86934 135.331 7.07237 135.624 7.07237C136.041 7.07237 136.526 6.79038 136.808 6.50838C136.932 6.56478 137 6.6663 137 6.7791C137 6.85805 136.966 6.94829 136.898 7.02725C136.368 7.62508 135.556 8.14395 134.947 8.14395C134.417 8.14395 133.887 7.89579 133.898 7.00469C133.424 7.6702 132.827 8.14395 132.184 8.14395C131.01 8.14395 130.774 6.97085 130.774 6.24895C130.774 4.27499 132.048 2.31232 133.616 2.31232ZM133.921 6.27151L134.552 3.24854C134.361 3.18086 134.191 3.1583 134.022 3.1583C132.657 3.1583 132.172 4.9405 132.172 6.16999C132.172 6.73398 132.432 6.98213 132.781 6.98213C133.142 6.98213 133.616 6.68886 133.921 6.27151Z" fill="black"/>
<path d="M130.825 3.06811H130.328L129.663 6.23772C129.527 6.86939 129.708 7.07242 130.001 7.07242C130.419 7.07242 130.904 6.79043 131.186 6.50843C131.31 6.56483 131.377 6.66635 131.377 6.77915C131.377 6.8581 131.343 6.94834 131.276 7.0273C130.746 7.62513 129.888 8.144 129.133 8.144C128.445 8.144 127.993 7.71537 128.253 6.47459L128.975 3.06811H128.411C128.354 2.70716 128.535 2.41388 128.884 2.41388H129.11L129.313 1.48894C129.426 0.970076 129.855 0.77832 130.261 0.77832C130.464 0.77832 130.655 0.834719 130.791 0.924957L130.475 2.41388H131.298C131.355 2.77484 131.174 3.06811 130.825 3.06811Z" fill="black"/>
<path d="M127.953 3.39517C127.953 4.35395 127.446 5.12097 125.269 6.32791C125.382 6.93701 125.799 7.16261 126.318 7.16261C127.13 7.16261 128.168 6.58734 128.653 5.9444C128.946 5.888 129.059 6.12487 128.935 6.32791C128.157 7.46716 126.848 8.14395 125.754 8.14395C125.009 8.14395 124.355 7.83939 124.039 7.16261C123.994 7.18517 123.949 7.20773 123.904 7.21901C123.464 7.3318 123.058 7.00469 123.137 6.56478C123.396 6.59862 123.622 6.54222 123.859 6.4407C123.848 6.33919 123.836 6.23767 123.836 6.12487C123.836 4.6585 124.806 2.31232 126.668 2.31232C127.694 2.31232 127.953 2.88758 127.953 3.39517ZM126.747 3.19214C125.63 3.19214 125.269 5.0533 125.235 5.84288C126.329 5.15481 127.074 4.36523 127.074 3.63205C127.074 3.37261 126.938 3.19214 126.747 3.19214Z" fill="black"/>
<path d="M119.149 5.08717L119.961 1.30845C120.029 1.0039 119.814 0.936219 119.634 1.15053C119.476 1.0039 119.465 0.8911 119.465 0.800862C119.465 0.541428 120.277 0 120.886 0C121.292 0 121.517 0.191756 121.427 0.620386L120.897 3.23729C121.472 2.5605 121.991 2.35747 122.442 2.35747C123.311 2.35747 123.852 3.03425 123.852 4.11711C123.852 6.03467 121.991 8.14398 120.311 8.14398C119.081 8.14398 118.777 6.82425 119.149 5.08717ZM122.431 4.36526C122.431 3.74488 122.172 3.49672 121.822 3.49672C121.461 3.49672 121.021 3.76744 120.705 4.17351C120.401 5.50452 120.356 5.92187 120.356 6.1813C120.356 6.82425 120.615 6.98216 120.908 6.98216C121.709 6.98216 122.431 5.68499 122.431 4.36526Z" fill="black"/>
</svg>
