<svg width="213" height="55" viewBox="0 0 213 55" fill="none" xmlns="http://www.w3.org/2000/svg">
<path d="M0.935561 19.025C0.932387 18.3265 1.45295 17.7484 2.14174 17.7484C2.14174 17.7484 8.51228 17.7435 11.6547 17.7435C14.0528 17.7435 15.9128 18.9833 16.708 20.9457H16.7841C17.4729 19.9564 18.2903 19.1953 19.1822 18.6685C20.1805 18.0615 21.3089 17.7435 22.6833 17.7435C26.2082 17.7435 28.8967 20.2664 28.8967 25.8468V35.6088C28.8967 36.2881 28.3524 36.8389 27.681 36.8389H24.5291C23.8578 36.8389 23.3134 36.2881 23.3134 35.6088V26.6963C23.3134 23.992 22.4532 22.4198 20.5979 22.4198C19.2663 22.4198 18.3458 23.3352 17.9586 24.4448C17.8189 24.864 17.7523 25.4517 17.7523 25.919V35.6088C17.7523 36.2881 17.2079 36.8389 16.5366 36.8389H13.3846C12.7133 36.8389 12.1689 36.2881 12.1689 35.6088V26.3703C12.1689 24.0177 11.3405 22.4198 9.51056 22.4198C8.03774 22.4198 7.16485 23.5632 6.82045 24.5043C6.65222 24.9587 6.6062 25.4887 6.6062 25.9752V35.6088C6.6062 36.2881 6.06183 36.8389 5.39049 36.8389H2.15761C1.48628 36.8389 0.935561 36.2881 0.935561 35.6088C0.935561 35.6088 0.94191 20.4061 0.935561 19.025Z" fill="white"/>
<path d="M49.2637 30.8523C49.2637 32.6605 49.3034 34.6453 49.3558 35.9718C49.3843 36.6687 48.8304 37.25 48.1417 37.25H38.3018C34.5515 37.25 31.8185 34.8846 31.8185 29.1436V19.3928C31.8185 18.7135 32.3629 18.1627 33.0342 18.1627H36.3497C37.021 18.1627 37.5654 18.7135 37.5654 19.3928V28.1994C37.5654 30.9326 38.4319 32.5673 40.4554 32.5673C42.0155 32.5673 42.9392 31.4721 43.3074 30.5247C43.4518 30.1858 43.5169 29.7587 43.5169 29.293V19.3928C43.5169 18.7135 44.0613 18.1627 44.7326 18.1627H48.048C48.7194 18.1627 49.2637 18.7135 49.2637 19.3928V30.8523Z" fill="white"/>
<path d="M52.4585 33.2273C52.6363 32.5159 53.3885 32.1145 54.0662 32.3794C55.1724 32.813 56.5849 33.1679 57.7419 33.1679C59.4734 33.1679 60.2146 32.577 60.2146 31.6247C60.2146 30.6724 59.6274 30.189 57.507 29.4648C53.6695 28.1881 52.2252 26.0748 52.2474 23.8828C52.2474 20.3756 55.1724 17.7419 59.7511 17.7419C61.3351 17.7419 62.7856 18.0182 63.8918 18.3923C64.4981 18.5979 64.8473 19.2354 64.6917 19.8633L64.2981 21.437C64.1251 22.1324 63.3998 22.5387 62.7317 22.301C61.9207 22.0136 60.9272 21.7743 59.9511 21.7743C58.5497 21.7743 57.7482 22.3395 57.7482 23.279C57.7482 24.2184 58.4799 24.6456 60.7415 25.4341C64.2442 26.6369 65.7106 28.4595 65.7328 31.1831C65.7328 34.6678 63.0459 37.2356 57.7578 37.2356C55.8644 37.2356 54.1218 36.8951 52.7791 36.3765C52.2014 36.1532 51.8792 35.5302 52.0316 34.9231L52.4569 33.2241L52.4585 33.2273Z" fill="white"/>
<path d="M79.7055 36.8389C79.1199 36.8389 78.6168 36.415 78.5104 35.8321L78.3549 34.9826H78.2327C77.0281 36.4696 75.1458 37.2581 72.962 37.2581C69.2038 37.2581 66.9962 34.5281 66.9962 31.5444C66.9962 26.6802 71.2971 24.3726 77.828 24.3822V24.1445C77.828 23.1521 77.3011 21.7341 74.4491 21.739C73.108 21.739 71.7177 22.0682 70.5845 22.5274C69.9148 22.7988 69.1625 22.4295 68.9626 21.7277L68.5864 20.4045C68.4166 19.8055 68.7166 19.176 69.2831 18.9303C70.6941 18.3217 72.8207 17.7435 75.4791 17.7435C81.6243 17.7435 83.5669 21.4178 83.5669 25.8034V32.3152C83.5669 33.4602 83.605 34.5682 83.6859 35.4932C83.7494 36.2143 83.1939 36.8373 82.4781 36.8373H79.7055V36.8389ZM77.9994 29.2801C77.9994 28.5703 77.4058 27.997 76.7059 28.0532C74.3396 28.2427 72.6462 29.0585 72.6462 30.9518C72.6462 32.4565 73.619 33.1872 74.9236 33.1872C76.3266 33.1872 77.5153 32.2381 77.8915 31.0418C77.9788 30.7415 77.9978 30.3801 77.9978 30.0493V29.2801H77.9994Z" fill="white"/>
<path d="M86.9981 19.0266C86.968 18.3265 87.5203 17.7452 88.2122 17.7452C88.2122 17.7452 95.4049 17.7435 97.1935 17.7435C97.1983 17.7435 97.2046 17.7435 97.2094 17.7435C97.8792 17.7435 98.4188 18.296 98.4188 18.9736V21.3616C98.4188 22.0601 97.8458 22.6125 97.1555 22.5901C97.0634 22.5869 96.9682 22.5852 96.8666 22.5852C94.759 22.5852 93.3195 23.7158 92.9338 25.5336C92.8624 25.903 92.8275 26.9195 92.8275 27.39V35.6088C92.8275 36.2881 92.2831 36.8389 91.6118 36.8389H88.2964C87.625 36.8389 87.0807 36.2881 87.0807 35.6088C87.0807 35.6088 87.0537 20.3354 86.9981 19.0266Z" fill="white"/>
<path d="M118.297 27.3145C118.297 34.1379 113.52 37.2581 108.571 37.2581C103.202 37.2581 99.0409 33.6657 99.0409 27.6357C99.0409 21.6057 102.969 17.7435 108.901 17.7435C114.834 17.7435 118.297 21.6747 118.297 27.3145ZM104.954 27.5056C104.954 30.6933 106.286 33.1117 108.73 33.1117C110.968 33.1117 112.383 30.8458 112.383 27.4767C112.383 24.7227 111.334 21.8931 108.735 21.8931C105.999 21.8931 104.954 24.7387 104.954 27.5072V27.5056Z" fill="white"/>
<path d="M120.446 33.2273C120.624 32.5159 121.376 32.1145 122.054 32.3794C123.16 32.813 124.572 33.1679 125.729 33.1679C127.461 33.1679 128.202 32.577 128.202 31.6247C128.202 30.6724 127.615 30.189 125.494 29.4648C121.657 28.1881 120.213 26.0748 120.235 23.8828C120.235 20.3756 123.16 17.7419 127.738 17.7419C129.322 17.7419 130.773 18.0182 131.879 18.3923C132.485 18.5979 132.835 19.2354 132.679 19.8633L132.285 21.437C132.112 22.1324 131.387 22.5387 130.719 22.301C129.908 22.0136 128.914 21.7743 127.938 21.7743C126.537 21.7743 125.736 22.3395 125.736 23.279C125.736 24.2184 126.467 24.6456 128.729 25.4341C132.232 26.6369 133.698 28.4595 133.72 31.1831C133.72 34.6678 131.033 37.2356 125.745 37.2356C123.852 37.2356 122.109 36.8951 120.766 36.3765C120.189 36.1532 119.867 35.5302 120.019 34.9231L120.444 33.2241L120.446 33.2273Z" fill="white"/>
<path d="M135.793 33.2273C135.971 32.5159 136.723 32.1145 137.401 32.3794C138.507 32.813 139.919 33.1679 141.076 33.1679C142.808 33.1679 143.549 32.577 143.549 31.6247C143.549 30.6724 142.962 30.189 140.841 29.4648C137.004 28.1881 135.56 26.0748 135.582 23.8828C135.582 20.3756 138.507 17.7419 143.086 17.7419C144.669 17.7419 146.12 18.0182 147.226 18.3923C147.832 18.5979 148.182 19.2354 148.026 19.8633L147.633 21.437C147.46 22.1324 146.734 22.5387 146.066 22.301C145.255 22.0136 144.262 21.7743 143.286 21.7743C141.884 21.7743 141.083 22.3395 141.083 23.279C141.083 24.2184 141.814 24.6456 144.076 25.4341C147.579 26.6369 149.045 28.4595 149.067 31.1831C149.067 34.6678 146.38 37.2356 141.092 37.2356C139.199 37.2356 137.456 36.8951 136.113 36.3765C135.536 36.1532 135.214 35.5302 135.366 34.9231L135.791 33.2241L135.793 33.2273Z" fill="white"/>
<path d="M194.702 27.9569C194.334 27.9569 194.04 27.6357 194.077 27.2567C194.11 26.9259 194.409 26.6866 194.737 26.6866H211.622C212.124 26.6866 212.238 25.9752 211.762 25.8163C206.231 23.9759 191.023 19.7332 185.281 18.2333C185.224 18.2189 185.164 18.2157 185.105 18.2253C181.775 19.4907 172.556 20.4366 168.911 21.0147C168.62 21.0613 168.33 21.1046 168.038 21.1464C165.819 21.4611 163.553 21.6362 161.248 21.6699C161.248 21.6699 161.245 21.6731 161.242 21.6747C161.185 21.7117 161.129 21.7518 161.075 21.7903C161.037 21.8176 160.997 21.8465 160.959 21.8738C160.913 21.9076 160.867 21.9429 160.821 21.9782C160.804 21.9911 160.788 22.0055 160.77 22.0184C159.158 23.2966 158.134 25.1916 158.126 27.3113C158.126 27.3113 158.126 27.3177 158.126 27.3226C158.126 27.3274 158.126 27.329 158.126 27.3338C158.133 29.4519 159.158 31.3485 160.77 32.6267C160.788 32.6396 160.804 32.654 160.821 32.6669C160.867 32.7022 160.913 32.7376 160.959 32.7713C160.997 32.8002 161.035 32.8275 161.075 32.8548C161.131 32.8933 161.186 32.9335 161.242 32.9704C161.242 32.9704 161.245 32.9736 161.248 32.9752C163.553 33.0105 165.819 33.1856 168.038 33.4987C168.33 33.5405 168.62 33.5838 168.911 33.6304C172.554 34.2085 181.775 35.1528 185.105 36.4198C185.164 36.4278 185.223 36.4262 185.281 36.4118C191.023 34.9119 206.231 30.6708 211.762 28.8289C212.238 28.6699 212.124 27.9585 211.622 27.9585H194.701L194.702 27.9569Z" fill="white"/>
<path d="M152.903 37.2244C154.115 37.2244 155.098 36.23 155.098 35.0034C155.098 33.7769 154.115 32.7825 152.903 32.7825C151.691 32.7825 150.708 33.7769 150.708 35.0034C150.708 36.23 151.691 37.2244 152.903 37.2244Z" fill="white"/>
</svg>
