<svg width="26" height="24" viewBox="0 0 26 24" fill="none" xmlns="http://www.w3.org/2000/svg">
<path d="M13 23.5238L11.115 21.8316C4.42 15.8449 0 11.8965 0 7.05073C0 3.10232 3.146 0 7.15 0C9.412 0 11.583 1.03838 13 2.67928C14.417 1.03838 16.588 0 18.85 0C22.854 0 26 3.10232 26 7.05073C26 11.8965 21.58 15.8449 14.885 21.8445L13 23.5238Z" fill="#FF6165"/>
<path fill-rule="evenodd" clip-rule="evenodd" d="M13 2.67928V23.5238L14.885 21.8316L14.9015 21.8169C21.5873 15.8384 26 11.8925 26 7.05073C26 3.10232 22.854 0 18.85 0C16.588 0 14.417 1.03838 13 2.67928Z" fill="#A1A1A1"/>
</svg>
