<svg width="29" height="28" viewBox="0 0 29 28" fill="none" xmlns="http://www.w3.org/2000/svg">
<path d="M12.7051 26.2051C12.7051 27.1964 13.5087 28 14.5 28C15.4913 28 16.2949 27.1964 16.2949 26.2051V15.7949H26.7051C27.6964 15.7949 28.5 14.9913 28.5 14C28.5 13.0087 27.6964 12.2051 26.7051 12.2051H16.2949V1.79487C16.2949 0.803591 15.4913 0 14.5 0C13.5087 0 12.7051 0.803592 12.7051 1.79487V12.2051H2.29487C1.30359 12.2051 0.5 13.0087 0.5 14C0.5 14.9913 1.30359 15.7949 2.29487 15.7949H12.7051V26.2051Z" fill="#A1A1A1"/>
</svg>
