<svg width="17" height="14" viewBox="0 0 17 14" fill="none" xmlns="http://www.w3.org/2000/svg">
<g id="&#236;&#131;&#136;&#235;&#161;&#156;&#234;&#179;&#160;&#236;&#185;&#168;">
<g id="Union">
<path d="M5.32854 2.20359C6.22425 1.56708 7.3077 1.19444 8.47428 1.19444C11.567 1.19444 14.0621 3.80681 14.0621 7.01408L14.0621 7.01568L14.0541 8.56674L15.7856 6.76115C15.9014 6.64043 16.0913 6.63815 16.2098 6.75606C16.3283 6.87398 16.3306 7.06743 16.2148 7.18815L13.7502 9.75823L11.2856 7.18815C11.1698 7.06743 11.172 6.87398 11.2906 6.75606C11.4091 6.63815 11.599 6.64043 11.7148 6.76115L13.454 8.5748L13.4621 7.01408V7.01326C13.4617 4.13023 11.2221 1.80555 8.47428 1.80555C7.43531 1.80555 6.4709 2.13696 5.67185 2.70477C5.53597 2.80133 5.34896 2.76742 5.25416 2.62902C5.15936 2.49062 5.19266 2.30015 5.32854 2.20359Z" fill="#A1A1A1"/>
<path d="M1.21481 7.18815C1.09904 7.30888 0.909104 7.31115 0.790576 7.19324C0.672047 7.07533 0.669811 6.88187 0.78558 6.76115L3.2502 4.19107L5.71481 6.76115C5.83058 6.88187 5.82834 7.07533 5.70982 7.19324C5.59129 7.31115 5.40135 7.30888 5.28558 7.18815L3.5502 5.37851V6.98592C3.5502 9.86933 5.78994 12.1944 8.53801 12.1944C9.57697 12.1944 10.5414 11.863 11.3404 11.2952C11.4763 11.1987 11.6633 11.2326 11.7581 11.371C11.8529 11.5094 11.8196 11.6998 11.6837 11.7964C10.788 12.4329 9.70459 12.8056 8.53801 12.8056C5.44532 12.8056 2.9502 10.1932 2.9502 6.98592V5.37851L1.21481 7.18815Z" fill="#A1A1A1"/>
<path d="M5.32854 2.20359C6.22425 1.56708 7.3077 1.19444 8.47428 1.19444C11.567 1.19444 14.0621 3.80681 14.0621 7.01408L14.0621 7.01568L14.0541 8.56674L15.7856 6.76115C15.9014 6.64043 16.0913 6.63815 16.2098 6.75606C16.3283 6.87398 16.3306 7.06743 16.2148 7.18815L13.7502 9.75823L11.2856 7.18815C11.1698 7.06743 11.172 6.87398 11.2906 6.75606C11.4091 6.63815 11.599 6.64043 11.7148 6.76115L13.454 8.5748L13.4621 7.01408V7.01326C13.4617 4.13023 11.2221 1.80555 8.47428 1.80555C7.43531 1.80555 6.4709 2.13696 5.67185 2.70477C5.53597 2.80133 5.34896 2.76742 5.25416 2.62902C5.15936 2.49062 5.19266 2.30015 5.32854 2.20359Z" stroke="#A1A1A1" stroke-linecap="round"/>
<path d="M1.21481 7.18815C1.09904 7.30888 0.909104 7.31115 0.790576 7.19324C0.672047 7.07533 0.669811 6.88187 0.78558 6.76115L3.2502 4.19107L5.71481 6.76115C5.83058 6.88187 5.82834 7.07533 5.70982 7.19324C5.59129 7.31115 5.40135 7.30888 5.28558 7.18815L3.5502 5.37851V6.98592C3.5502 9.86933 5.78994 12.1944 8.53801 12.1944C9.57697 12.1944 10.5414 11.863 11.3404 11.2952C11.4763 11.1987 11.6633 11.2326 11.7581 11.371C11.8529 11.5094 11.8196 11.6998 11.6837 11.7964C10.788 12.4329 9.70459 12.8056 8.53801 12.8056C5.44532 12.8056 2.9502 10.1932 2.9502 6.98592V5.37851L1.21481 7.18815Z" stroke="#A1A1A1" stroke-linecap="round"/>
</g>
</g>
</svg>
