<svg width="47" height="47" viewBox="0 0 47 47" fill="none" xmlns="http://www.w3.org/2000/svg">
<path d="M33 24.75C33.6904 24.75 34.25 24.1904 34.25 23.5C34.25 22.8096 33.6904 22.25 33 22.25V24.75ZM13.1161 22.6161C12.628 23.1043 12.628 23.8957 13.1161 24.3839L21.0711 32.3388C21.5592 32.827 22.3507 32.827 22.8388 32.3388C23.327 31.8507 23.327 31.0592 22.8388 30.5711L15.7678 23.5L22.8388 16.4289C23.327 15.9408 23.327 15.1493 22.8388 14.6612C22.3507 14.173 21.5592 14.173 21.0711 14.6612L13.1161 22.6161ZM33 22.25L14 22.25V24.75L33 24.75V22.25Z" fill="#8C8C8C"/>
</svg>
