<svg width="13" height="14" viewBox="0 0 13 14" fill="none" xmlns="http://www.w3.org/2000/svg">
<path fill-rule="evenodd" clip-rule="evenodd" d="M3.97668 13.3291C4.55873 13.6201 5.26417 13.4777 5.68768 12.9836L8.80009 9.35242C9.18847 8.89931 9.40195 8.32222 9.40195 7.72544V3.02113C9.40195 1.64042 8.28266 0.52113 6.90195 0.52113H3.12694C1.91873 0.52113 0.8834 1.38519 0.667268 2.57392L0.0410566 6.01808C-0.237962 7.55268 0.940972 8.96529 2.50073 8.96529H4.14779L3.2655 11.6122C3.04232 12.2817 3.34542 13.0135 3.97668 13.3291ZM4.92842 12.3328C4.80354 12.4785 4.59552 12.5205 4.42389 12.4347C4.23775 12.3416 4.14837 12.1258 4.21418 11.9284L5.31584 8.6234L5.53521 7.96529H4.8415H2.50073C1.56488 7.96529 0.857516 7.11772 1.02493 6.19696L1.65114 2.7528C1.78082 2.03957 2.40201 1.52113 3.12694 1.52113H6.90195C7.73038 1.52113 8.40195 2.1927 8.40195 3.02113V7.72544C8.40195 8.08351 8.27386 8.42976 8.04083 8.70163L4.92842 12.3328ZM11.1089 7.78855C11.1089 8.06469 11.3328 8.28855 11.6089 8.28855C11.8851 8.28855 12.1089 8.06469 12.1089 7.78855V1.69787C12.1089 1.42173 11.8851 1.19787 11.6089 1.19787C11.3328 1.19787 11.1089 1.42173 11.1089 1.69787V7.78855Z" fill="#A1A1A1"/>
</svg>
